<svg xmlns="http://www.w3.org/2000/svg" xmlns:xlink="http://www.w3.org/1999/xlink" width="500" zoomAndPan="magnify" viewBox="0 0 375 374.999991" height="500" preserveAspectRatio="xMidYMid meet" version="1.0"><defs><clipPath id="04e0571ede"><path d="M 6.242188 69.457031 L 368.492188 69.457031 L 368.492188 305.707031 L 6.242188 305.707031 Z M 6.242188 69.457031 " clip-rule="nonzero"/></clipPath></defs><path fill="#010882" d="M 187.457031 147.074219 L 113.558594 184.75 L 68.441406 161.707031 L 187.457031 100.988281 L 306.550781 161.707031 L 261.355469 184.75 Z M 187.457031 147.074219 " fill-opacity="1" fill-rule="evenodd"/><path fill="#010882" d="M 187.457031 100.988281 L 306.550781 161.707031 L 261.355469 184.75 L 187.457031 147.074219 Z M 187.457031 100.988281 " fill-opacity="1" fill-rule="evenodd"/><g clip-path="url(#04e0571ede)"><path fill="#010882" d="M 194.328125 148.285156 L 261.355469 182.484375 L 302.023438 161.707031 L 254.480469 137.453125 L 187.457031 103.25 L 120.429688 137.453125 L 72.890625 161.707031 L 113.558594 182.484375 L 180.582031 148.285156 L 187.457031 144.808594 Z M 187.457031 271.746094 C 157.78125 256.625 128.109375 241.507812 98.4375 226.308594 L 98.4375 260.183594 L 106.683594 264.386719 L 180.582031 302.066406 L 187.457031 305.542969 L 194.328125 302.066406 L 268.226562 264.386719 L 276.472656 260.183594 L 276.472656 226.308594 C 246.800781 241.425781 217.128906 256.625 187.457031 271.746094 Z M 194.328125 72.851562 L 268.226562 110.609375 L 342.125 148.285156 L 368.480469 161.707031 L 342.125 175.128906 C 292.886719 200.273438 243.566406 225.417969 194.328125 250.5625 L 187.457031 254.039062 L 180.582031 250.5625 L 106.765625 212.886719 C 87.683594 203.183594 68.683594 193.480469 49.605469 183.699219 L 49.605469 216.605469 C 52.917969 218.140625 55.261719 221.457031 55.261719 225.417969 C 55.261719 228.570312 53.726562 231.402344 51.382812 233.179688 L 55.585938 269.886719 C 56.152344 274.65625 51.140625 278.617188 45.640625 278.617188 C 40.226562 278.617188 35.210938 274.65625 35.699219 269.886719 L 39.902344 233.179688 C 37.558594 231.402344 36.019531 228.570312 36.019531 225.417969 C 36.019531 221.535156 38.367188 218.140625 41.679688 216.605469 L 41.679688 179.65625 L 32.867188 175.128906 L 6.511719 161.707031 L 32.867188 148.285156 L 180.664062 72.933594 L 187.535156 69.457031 Z M 194.328125 72.851562 " fill-opacity="1" fill-rule="evenodd"/></g></svg>