<svg xmlns="http://www.w3.org/2000/svg" xmlns:xlink="http://www.w3.org/1999/xlink" width="500" zoomAndPan="magnify" viewBox="0 0 375 374.999991" height="500" preserveAspectRatio="xMidYMid meet" version="1.0"><defs><g/><clipPath id="993e8f99ff"><path d="M 36.519531 27.382812 L 337.269531 27.382812 L 337.269531 223.132812 L 36.519531 223.132812 Z M 36.519531 27.382812 " clip-rule="nonzero"/></clipPath><clipPath id="937dfd06b8"><rect x="0" width="304" y="0" height="150"/></clipPath><clipPath id="798d765f10"><rect x="0" width="296" y="0" height="15"/></clipPath></defs><path fill="#010882" d="M 186.972656 91.824219 L 125.621094 123.105469 L 88.164062 103.972656 L 186.972656 53.5625 L 285.847656 103.972656 L 248.324219 123.105469 Z M 186.972656 91.824219 " fill-opacity="1" fill-rule="evenodd"/><path fill="#010882" d="M 186.972656 53.5625 L 285.847656 103.972656 L 248.324219 123.105469 L 186.972656 91.824219 Z M 186.972656 53.5625 " fill-opacity="1" fill-rule="evenodd"/><g clip-path="url(#993e8f99ff)"><path fill="#010882" d="M 192.679688 92.832031 L 248.324219 121.226562 L 282.089844 103.972656 L 242.621094 83.835938 L 186.972656 55.441406 L 131.324219 83.835938 L 91.855469 103.972656 L 125.621094 121.226562 L 181.265625 92.832031 L 186.972656 89.945312 Z M 186.972656 195.332031 C 162.335938 182.78125 137.703125 170.226562 113.066406 157.609375 L 113.066406 185.734375 L 119.914062 189.222656 L 181.265625 220.503906 L 186.972656 223.390625 L 192.679688 220.503906 L 254.03125 189.222656 L 260.878906 185.734375 L 260.878906 157.609375 C 236.242188 170.160156 211.609375 182.78125 186.972656 195.332031 Z M 192.679688 30.203125 L 254.03125 61.550781 L 315.386719 92.832031 L 337.269531 103.972656 L 315.386719 115.117188 C 274.503906 135.992188 233.558594 156.871094 192.679688 177.746094 L 186.972656 180.632812 L 181.265625 177.746094 L 119.980469 146.464844 C 104.140625 138.410156 88.363281 130.355469 72.523438 122.234375 L 72.523438 149.554688 C 75.273438 150.828125 77.222656 153.582031 77.222656 156.871094 C 77.222656 159.488281 75.945312 161.835938 74 163.3125 L 77.492188 193.789062 C 77.960938 197.75 73.796875 201.039062 69.234375 201.039062 C 64.738281 201.039062 60.574219 197.75 60.976562 193.789062 L 64.46875 163.3125 C 62.519531 161.835938 61.246094 159.488281 61.246094 156.871094 C 61.246094 153.648438 63.191406 150.828125 65.945312 149.554688 L 65.945312 118.875 L 58.628906 115.117188 L 36.746094 103.972656 L 58.628906 92.832031 L 119.980469 61.550781 L 181.335938 30.269531 L 187.039062 27.382812 Z M 192.679688 30.203125 " fill-opacity="1" fill-rule="evenodd"/></g><g transform="matrix(1, 0, 0, 1, 36, 199)"><g clip-path="url(#937dfd06b8)"><g fill="#ffffff" fill-opacity="1"><g transform="translate(0.620195, 119.100394)"><g><path d="M 41.375 1.25 C 34.75 1.25 28.242188 0.109375 21.859375 -2.171875 C 15.484375 -4.453125 9.6875 -7.953125 4.46875 -12.671875 L 15.78125 -26.21875 C 19.757812 -22.988281 23.835938 -20.421875 28.015625 -18.515625 C 32.203125 -16.609375 36.78125 -15.65625 41.75 -15.65625 C 45.726562 -15.65625 48.8125 -16.378906 51 -17.828125 C 53.195312 -19.273438 54.296875 -21.285156 54.296875 -23.859375 L 54.296875 -24.109375 C 54.296875 -25.347656 54.066406 -26.441406 53.609375 -27.390625 C 53.160156 -28.347656 52.289062 -29.238281 51 -30.0625 C 49.71875 -30.894531 47.9375 -31.722656 45.65625 -32.546875 C 43.382812 -33.378906 40.425781 -34.253906 36.78125 -35.171875 C 32.394531 -36.242188 28.421875 -37.441406 24.859375 -38.765625 C 21.296875 -40.097656 18.269531 -41.734375 15.78125 -43.671875 C 13.289062 -45.617188 11.363281 -48.039062 10 -50.9375 C 8.632812 -53.84375 7.953125 -57.453125 7.953125 -61.765625 L 7.953125 -62.015625 C 7.953125 -65.984375 8.695312 -69.5625 10.1875 -72.75 C 11.675781 -75.945312 13.765625 -78.703125 16.453125 -81.015625 C 19.148438 -83.335938 22.363281 -85.117188 26.09375 -86.359375 C 29.820312 -87.609375 33.921875 -88.234375 38.390625 -88.234375 C 44.773438 -88.234375 50.640625 -87.28125 55.984375 -85.375 C 61.328125 -83.46875 66.234375 -80.734375 70.703125 -77.171875 L 60.765625 -62.75 C 56.867188 -65.40625 53.054688 -67.5 49.328125 -69.03125 C 45.597656 -70.5625 41.875 -71.328125 38.15625 -71.328125 C 34.425781 -71.328125 31.628906 -70.601562 29.765625 -69.15625 C 27.898438 -67.707031 26.96875 -65.90625 26.96875 -63.75 L 26.96875 -63.5 C 26.96875 -62.09375 27.234375 -60.867188 27.765625 -59.828125 C 28.304688 -58.796875 29.28125 -57.863281 30.6875 -57.03125 C 32.101562 -56.207031 34.03125 -55.421875 36.46875 -54.671875 C 38.914062 -53.929688 42.003906 -53.0625 45.734375 -52.0625 C 50.117188 -50.90625 54.03125 -49.601562 57.46875 -48.15625 C 60.90625 -46.707031 63.804688 -44.96875 66.171875 -42.9375 C 68.535156 -40.90625 70.316406 -38.519531 71.515625 -35.78125 C 72.710938 -33.050781 73.3125 -29.78125 73.3125 -25.96875 L 73.3125 -25.71875 C 73.3125 -21.414062 72.523438 -17.585938 70.953125 -14.234375 C 69.378906 -10.878906 67.179688 -8.0625 64.359375 -5.78125 C 61.546875 -3.5 58.191406 -1.753906 54.296875 -0.546875 C 50.410156 0.648438 46.101562 1.25 41.375 1.25 Z M 41.375 1.25 "/></g></g></g><g fill="#ffffff" fill-opacity="1"><g transform="translate(80.149917, 119.100394)"><g><path d="M 11.3125 -86.984375 L 30.4375 -86.984375 L 30.4375 0 L 11.3125 0 Z M 11.3125 -86.984375 "/></g></g></g><g fill="#ffffff" fill-opacity="1"><g transform="translate(121.903038, 119.100394)"><g><path d="M 52.3125 1.484375 C 45.519531 1.484375 39.328125 0.367188 33.734375 -1.859375 C 28.140625 -4.097656 23.332031 -7.207031 19.3125 -11.1875 C 15.300781 -15.164062 12.175781 -19.882812 9.9375 -25.34375 C 7.707031 -30.8125 6.59375 -36.78125 6.59375 -43.25 L 6.59375 -43.5 C 6.59375 -49.707031 7.726562 -55.523438 10 -60.953125 C 12.28125 -66.378906 15.445312 -71.140625 19.5 -75.234375 C 23.5625 -79.335938 28.367188 -82.570312 33.921875 -84.9375 C 39.472656 -87.300781 45.5625 -88.484375 52.1875 -88.484375 C 56.082031 -88.484375 59.625 -88.210938 62.8125 -87.671875 C 66 -87.128906 68.957031 -86.359375 71.6875 -85.359375 C 74.425781 -84.367188 77 -83.128906 79.40625 -81.640625 C 81.8125 -80.148438 84.128906 -78.453125 86.359375 -76.546875 L 74.3125 -62.015625 C 72.65625 -63.421875 71 -64.660156 69.34375 -65.734375 C 67.6875 -66.816406 65.96875 -67.726562 64.1875 -68.46875 C 62.40625 -69.21875 60.476562 -69.796875 58.40625 -70.203125 C 56.332031 -70.617188 54.050781 -70.828125 51.5625 -70.828125 C 48.082031 -70.828125 44.832031 -70.101562 41.8125 -68.65625 C 38.789062 -67.207031 36.140625 -65.257812 33.859375 -62.8125 C 31.578125 -60.375 29.796875 -57.515625 28.515625 -54.234375 C 27.234375 -50.960938 26.59375 -47.460938 26.59375 -43.734375 L 26.59375 -43.5 C 26.59375 -39.519531 27.234375 -35.851562 28.515625 -32.5 C 29.796875 -29.144531 31.617188 -26.222656 33.984375 -23.734375 C 36.347656 -21.242188 39.125 -19.316406 42.3125 -17.953125 C 45.5 -16.585938 49.039062 -15.90625 52.9375 -15.90625 C 60.0625 -15.90625 66.066406 -17.644531 70.953125 -21.125 L 70.953125 -33.546875 L 51.6875 -33.546875 L 51.6875 -50.078125 L 89.46875 -50.078125 L 89.46875 -12.296875 C 85 -8.492188 79.675781 -5.242188 73.5 -2.546875 C 67.332031 0.140625 60.269531 1.484375 52.3125 1.484375 Z M 52.3125 1.484375 "/></g></g></g><g fill="#ffffff" fill-opacity="1"><g transform="translate(219.326965, 119.100394)"><g><path d="M 10.4375 -86.984375 L 45.984375 -86.984375 C 51.203125 -86.984375 55.859375 -86.257812 59.953125 -84.8125 C 64.054688 -83.363281 67.535156 -81.3125 70.390625 -78.65625 C 73.253906 -76.007812 75.453125 -72.84375 76.984375 -69.15625 C 78.515625 -65.46875 79.28125 -61.382812 79.28125 -56.90625 L 79.28125 -56.671875 C 79.28125 -51.609375 78.367188 -47.171875 76.546875 -43.359375 C 74.722656 -39.554688 72.21875 -36.367188 69.03125 -33.796875 C 65.84375 -31.234375 62.113281 -29.304688 57.84375 -28.015625 C 53.582031 -26.734375 49.003906 -26.09375 44.109375 -26.09375 L 29.578125 -26.09375 L 29.578125 0 L 10.4375 0 Z M 44.734375 -43.125 C 49.535156 -43.125 53.257812 -44.382812 55.90625 -46.90625 C 58.5625 -49.4375 59.890625 -52.566406 59.890625 -56.296875 L 59.890625 -56.546875 C 59.890625 -60.847656 58.5 -64.117188 55.71875 -66.359375 C 52.945312 -68.597656 49.160156 -69.71875 44.359375 -69.71875 L 29.578125 -69.71875 L 29.578125 -43.125 Z M 44.734375 -43.125 "/></g></g></g></g></g><g transform="matrix(1, 0, 0, 1, 37, 329)"><g clip-path="url(#798d765f10)"><g fill="#010882" fill-opacity="1"><g transform="translate(0.910054, 11.724572)"><g><path d="M 4 0.125 C 3.34375 0.125 2.738281 0.015625 2.1875 -0.203125 C 1.644531 -0.421875 1.125 -0.753906 0.625 -1.203125 L 1.203125 -1.890625 C 1.640625 -1.492188 2.078125 -1.195312 2.515625 -1 C 2.953125 -0.8125 3.457031 -0.71875 4.03125 -0.71875 C 4.59375 -0.71875 5.039062 -0.847656 5.375 -1.109375 C 5.707031 -1.378906 5.875 -1.71875 5.875 -2.125 L 5.875 -2.140625 C 5.875 -2.335938 5.84375 -2.507812 5.78125 -2.65625 C 5.71875 -2.8125 5.609375 -2.953125 5.453125 -3.078125 C 5.296875 -3.203125 5.078125 -3.316406 4.796875 -3.421875 C 4.515625 -3.523438 4.160156 -3.625 3.734375 -3.71875 C 3.253906 -3.820312 2.835938 -3.9375 2.484375 -4.0625 C 2.140625 -4.195312 1.851562 -4.359375 1.625 -4.546875 C 1.394531 -4.742188 1.222656 -4.96875 1.109375 -5.21875 C 1.003906 -5.46875 0.953125 -5.757812 0.953125 -6.09375 L 0.953125 -6.125 C 0.953125 -6.445312 1.019531 -6.742188 1.15625 -7.015625 C 1.289062 -7.296875 1.476562 -7.535156 1.71875 -7.734375 C 1.96875 -7.929688 2.253906 -8.085938 2.578125 -8.203125 C 2.910156 -8.316406 3.273438 -8.375 3.671875 -8.375 C 4.273438 -8.375 4.800781 -8.289062 5.25 -8.125 C 5.707031 -7.957031 6.148438 -7.703125 6.578125 -7.359375 L 6.03125 -6.640625 C 5.644531 -6.953125 5.253906 -7.175781 4.859375 -7.3125 C 4.472656 -7.457031 4.066406 -7.53125 3.640625 -7.53125 C 3.097656 -7.53125 2.671875 -7.398438 2.359375 -7.140625 C 2.046875 -6.890625 1.890625 -6.578125 1.890625 -6.203125 L 1.890625 -6.1875 C 1.890625 -5.988281 1.921875 -5.8125 1.984375 -5.65625 C 2.046875 -5.5 2.160156 -5.351562 2.328125 -5.21875 C 2.492188 -5.09375 2.71875 -4.976562 3 -4.875 C 3.289062 -4.769531 3.664062 -4.671875 4.125 -4.578125 C 5.050781 -4.367188 5.726562 -4.082031 6.15625 -3.71875 C 6.59375 -3.363281 6.8125 -2.867188 6.8125 -2.234375 L 6.8125 -2.21875 C 6.8125 -1.863281 6.738281 -1.539062 6.59375 -1.25 C 6.457031 -0.96875 6.265625 -0.722656 6.015625 -0.515625 C 5.773438 -0.316406 5.476562 -0.160156 5.125 -0.046875 C 4.78125 0.0664062 4.40625 0.125 4 0.125 Z M 4 0.125 "/></g></g></g><g fill="#010882" fill-opacity="1"><g transform="translate(8.464218, 11.724572)"><g><path d="M 1.25 -8.265625 L 2.1875 -8.265625 L 2.1875 0 L 1.25 0 Z M 1.25 -8.265625 "/></g></g></g><g fill="#010882" fill-opacity="1"><g transform="translate(11.899004, 11.724572)"><g><path d="M 4 0.125 C 3.34375 0.125 2.738281 0.015625 2.1875 -0.203125 C 1.644531 -0.421875 1.125 -0.753906 0.625 -1.203125 L 1.203125 -1.890625 C 1.640625 -1.492188 2.078125 -1.195312 2.515625 -1 C 2.953125 -0.8125 3.457031 -0.71875 4.03125 -0.71875 C 4.59375 -0.71875 5.039062 -0.847656 5.375 -1.109375 C 5.707031 -1.378906 5.875 -1.71875 5.875 -2.125 L 5.875 -2.140625 C 5.875 -2.335938 5.84375 -2.507812 5.78125 -2.65625 C 5.71875 -2.8125 5.609375 -2.953125 5.453125 -3.078125 C 5.296875 -3.203125 5.078125 -3.316406 4.796875 -3.421875 C 4.515625 -3.523438 4.160156 -3.625 3.734375 -3.71875 C 3.253906 -3.820312 2.835938 -3.9375 2.484375 -4.0625 C 2.140625 -4.195312 1.851562 -4.359375 1.625 -4.546875 C 1.394531 -4.742188 1.222656 -4.96875 1.109375 -5.21875 C 1.003906 -5.46875 0.953125 -5.757812 0.953125 -6.09375 L 0.953125 -6.125 C 0.953125 -6.445312 1.019531 -6.742188 1.15625 -7.015625 C 1.289062 -7.296875 1.476562 -7.535156 1.71875 -7.734375 C 1.96875 -7.929688 2.253906 -8.085938 2.578125 -8.203125 C 2.910156 -8.316406 3.273438 -8.375 3.671875 -8.375 C 4.273438 -8.375 4.800781 -8.289062 5.25 -8.125 C 5.707031 -7.957031 6.148438 -7.703125 6.578125 -7.359375 L 6.03125 -6.640625 C 5.644531 -6.953125 5.253906 -7.175781 4.859375 -7.3125 C 4.472656 -7.457031 4.066406 -7.53125 3.640625 -7.53125 C 3.097656 -7.53125 2.671875 -7.398438 2.359375 -7.140625 C 2.046875 -6.890625 1.890625 -6.578125 1.890625 -6.203125 L 1.890625 -6.1875 C 1.890625 -5.988281 1.921875 -5.8125 1.984375 -5.65625 C 2.046875 -5.5 2.160156 -5.351562 2.328125 -5.21875 C 2.492188 -5.09375 2.71875 -4.976562 3 -4.875 C 3.289062 -4.769531 3.664062 -4.671875 4.125 -4.578125 C 5.050781 -4.367188 5.726562 -4.082031 6.15625 -3.71875 C 6.59375 -3.363281 6.8125 -2.867188 6.8125 -2.234375 L 6.8125 -2.21875 C 6.8125 -1.863281 6.738281 -1.539062 6.59375 -1.25 C 6.457031 -0.96875 6.265625 -0.722656 6.015625 -0.515625 C 5.773438 -0.316406 5.476562 -0.160156 5.125 -0.046875 C 4.78125 0.0664062 4.40625 0.125 4 0.125 Z M 4 0.125 "/></g></g></g><g fill="#010882" fill-opacity="1"><g transform="translate(19.453168, 11.724572)"><g><path d="M 3.3125 -7.390625 L 0.53125 -7.390625 L 0.53125 -8.265625 L 7.03125 -8.265625 L 7.03125 -7.390625 L 4.25 -7.390625 L 4.25 0 L 3.3125 0 Z M 3.3125 -7.390625 "/></g></g></g><g fill="#010882" fill-opacity="1"><g transform="translate(27.019136, 11.724572)"><g><path d="M 1.171875 -8.265625 L 7.140625 -8.265625 L 7.140625 -7.40625 L 2.09375 -7.40625 L 2.09375 -4.59375 L 6.609375 -4.59375 L 6.609375 -3.734375 L 2.09375 -3.734375 L 2.09375 -0.84375 L 7.203125 -0.84375 L 7.203125 0 L 1.171875 0 Z M 1.171875 -8.265625 "/></g></g></g><g fill="#010882" fill-opacity="1"><g transform="translate(34.9274, 11.724572)"><g><path d="M 1.171875 -8.265625 L 2.109375 -8.265625 L 5.125 -3.75 L 8.125 -8.265625 L 9.078125 -8.265625 L 9.078125 0 L 8.140625 0 L 8.140625 -6.6875 L 5.125 -2.265625 L 5.078125 -2.265625 L 2.078125 -6.671875 L 2.078125 0 L 1.171875 0 Z M 1.171875 -8.265625 "/></g></g></g><g fill="#010882" fill-opacity="1"><g transform="translate(45.172737, 11.724572)"><g><path d="M 4.21875 -8.3125 L 5.09375 -8.3125 L 8.859375 0 L 7.859375 0 L 6.890625 -2.1875 L 2.390625 -2.1875 L 1.421875 0 L 0.453125 0 Z M 6.53125 -3.015625 L 4.640625 -7.234375 L 2.765625 -3.015625 Z M 6.53125 -3.015625 "/></g></g></g><g fill="#010882" fill-opacity="1"><g transform="translate(54.497408, 11.724572)"><g/></g></g><g fill="#010882" fill-opacity="1"><g transform="translate(58.038423, 11.724572)"><g><path d="M 1.25 -8.265625 L 2.1875 -8.265625 L 2.1875 0 L 1.25 0 Z M 1.25 -8.265625 "/></g></g></g><g fill="#010882" fill-opacity="1"><g transform="translate(61.473209, 11.724572)"><g><path d="M 1.171875 -8.265625 L 2.046875 -8.265625 L 7.25 -1.640625 L 7.25 -8.265625 L 8.15625 -8.265625 L 8.15625 0 L 7.40625 0 L 2.078125 -6.765625 L 2.078125 0 L 1.171875 0 Z M 1.171875 -8.265625 "/></g></g></g><g fill="#010882" fill-opacity="1"><g transform="translate(70.79788, 11.724572)"><g><path d="M 3.3125 -7.390625 L 0.53125 -7.390625 L 0.53125 -8.265625 L 7.03125 -8.265625 L 7.03125 -7.390625 L 4.25 -7.390625 L 4.25 0 L 3.3125 0 Z M 3.3125 -7.390625 "/></g></g></g><g fill="#010882" fill-opacity="1"><g transform="translate(78.363852, 11.724572)"><g><path d="M 1.171875 -8.265625 L 7.140625 -8.265625 L 7.140625 -7.40625 L 2.09375 -7.40625 L 2.09375 -4.59375 L 6.609375 -4.59375 L 6.609375 -3.734375 L 2.09375 -3.734375 L 2.09375 -0.84375 L 7.203125 -0.84375 L 7.203125 0 L 1.171875 0 Z M 1.171875 -8.265625 "/></g></g></g><g fill="#010882" fill-opacity="1"><g transform="translate(86.272107, 11.724572)"><g><path d="M 5 0.140625 C 4.34375 0.140625 3.757812 0.03125 3.25 -0.1875 C 2.738281 -0.40625 2.296875 -0.707031 1.921875 -1.09375 C 1.554688 -1.476562 1.273438 -1.925781 1.078125 -2.4375 C 0.890625 -2.957031 0.796875 -3.515625 0.796875 -4.109375 L 0.796875 -4.125 C 0.796875 -4.695312 0.894531 -5.238281 1.09375 -5.75 C 1.300781 -6.269531 1.582031 -6.722656 1.9375 -7.109375 C 2.300781 -7.503906 2.738281 -7.816406 3.25 -8.046875 C 3.757812 -8.285156 4.320312 -8.40625 4.9375 -8.40625 C 5.289062 -8.40625 5.609375 -8.378906 5.890625 -8.328125 C 6.179688 -8.285156 6.445312 -8.210938 6.6875 -8.109375 C 6.9375 -8.015625 7.171875 -7.898438 7.390625 -7.765625 C 7.609375 -7.628906 7.816406 -7.472656 8.015625 -7.296875 L 7.421875 -6.59375 C 7.265625 -6.738281 7.097656 -6.867188 6.921875 -6.984375 C 6.753906 -7.097656 6.566406 -7.191406 6.359375 -7.265625 C 6.160156 -7.347656 5.941406 -7.410156 5.703125 -7.453125 C 5.460938 -7.503906 5.195312 -7.53125 4.90625 -7.53125 C 4.445312 -7.53125 4.023438 -7.441406 3.640625 -7.265625 C 3.253906 -7.085938 2.921875 -6.84375 2.640625 -6.53125 C 2.367188 -6.226562 2.15625 -5.867188 2 -5.453125 C 1.84375 -5.046875 1.765625 -4.613281 1.765625 -4.15625 L 1.765625 -4.125 C 1.765625 -3.632812 1.84375 -3.179688 2 -2.765625 C 2.15625 -2.347656 2.375 -1.984375 2.65625 -1.671875 C 2.9375 -1.367188 3.273438 -1.128906 3.671875 -0.953125 C 4.078125 -0.785156 4.53125 -0.703125 5.03125 -0.703125 C 5.507812 -0.703125 5.957031 -0.78125 6.375 -0.9375 C 6.789062 -1.101562 7.140625 -1.296875 7.421875 -1.515625 L 7.421875 -3.578125 L 4.90625 -3.578125 L 4.90625 -4.40625 L 8.3125 -4.40625 L 8.3125 -1.125 C 7.925781 -0.78125 7.453125 -0.484375 6.890625 -0.234375 C 6.328125 0.015625 5.695312 0.140625 5 0.140625 Z M 5 0.140625 "/></g></g></g><g fill="#010882" fill-opacity="1"><g transform="translate(95.525957, 11.724572)"><g><path d="M 1.171875 -8.265625 L 4.71875 -8.265625 C 5.226562 -8.265625 5.679688 -8.191406 6.078125 -8.046875 C 6.472656 -7.898438 6.800781 -7.695312 7.0625 -7.4375 C 7.269531 -7.226562 7.425781 -6.984375 7.53125 -6.703125 C 7.644531 -6.429688 7.703125 -6.128906 7.703125 -5.796875 L 7.703125 -5.78125 C 7.703125 -5.4375 7.644531 -5.128906 7.53125 -4.859375 C 7.425781 -4.585938 7.269531 -4.347656 7.0625 -4.140625 C 6.863281 -3.941406 6.628906 -3.773438 6.359375 -3.640625 C 6.085938 -3.515625 5.789062 -3.425781 5.46875 -3.375 L 8 0 L 6.859375 0 L 4.453125 -3.203125 L 2.09375 -3.203125 L 2.09375 0 L 1.171875 0 Z M 4.640625 -4.046875 C 4.941406 -4.046875 5.222656 -4.082031 5.484375 -4.15625 C 5.742188 -4.238281 5.96875 -4.351562 6.15625 -4.5 C 6.34375 -4.644531 6.488281 -4.820312 6.59375 -5.03125 C 6.707031 -5.238281 6.765625 -5.476562 6.765625 -5.75 L 6.765625 -5.765625 C 6.765625 -6.273438 6.578125 -6.671875 6.203125 -6.953125 C 5.835938 -7.242188 5.316406 -7.390625 4.640625 -7.390625 L 2.09375 -7.390625 L 2.09375 -4.046875 Z M 4.640625 -4.046875 "/></g></g></g><g fill="#010882" fill-opacity="1"><g transform="translate(104.059805, 11.724572)"><g><path d="M 4.21875 -8.3125 L 5.09375 -8.3125 L 8.859375 0 L 7.859375 0 L 6.890625 -2.1875 L 2.390625 -2.1875 L 1.421875 0 L 0.453125 0 Z M 6.53125 -3.015625 L 4.640625 -7.234375 L 2.765625 -3.015625 Z M 6.53125 -3.015625 "/></g></g></g><g fill="#010882" fill-opacity="1"><g transform="translate(113.384476, 11.724572)"><g><path d="M 1.171875 -8.265625 L 2.09375 -8.265625 L 2.09375 -0.859375 L 6.75 -0.859375 L 6.75 0 L 1.171875 0 Z M 1.171875 -8.265625 "/></g></g></g><g fill="#010882" fill-opacity="1"><g transform="translate(120.643557, 11.724572)"><g/></g></g><g fill="#010882" fill-opacity="1"><g transform="translate(124.184577, 11.724572)"><g><path d="M 1.171875 -8.265625 L 4.03125 -8.265625 C 4.675781 -8.265625 5.269531 -8.15625 5.8125 -7.9375 C 6.351562 -7.726562 6.816406 -7.441406 7.203125 -7.078125 C 7.585938 -6.710938 7.882812 -6.28125 8.09375 -5.78125 C 8.3125 -5.28125 8.421875 -4.738281 8.421875 -4.15625 L 8.421875 -4.125 C 8.421875 -3.539062 8.3125 -3 8.09375 -2.5 C 7.882812 -2 7.585938 -1.5625 7.203125 -1.1875 C 6.816406 -0.820312 6.351562 -0.53125 5.8125 -0.3125 C 5.269531 -0.101562 4.675781 0 4.03125 0 L 1.171875 0 Z M 2.09375 -7.390625 L 2.09375 -0.859375 L 4.03125 -0.859375 C 4.550781 -0.859375 5.023438 -0.941406 5.453125 -1.109375 C 5.878906 -1.273438 6.238281 -1.503906 6.53125 -1.796875 C 6.820312 -2.085938 7.046875 -2.429688 7.203125 -2.828125 C 7.367188 -3.222656 7.453125 -3.648438 7.453125 -4.109375 L 7.453125 -4.125 C 7.453125 -4.582031 7.367188 -5.007812 7.203125 -5.40625 C 7.046875 -5.800781 6.820312 -6.144531 6.53125 -6.4375 C 6.238281 -6.738281 5.878906 -6.972656 5.453125 -7.140625 C 5.023438 -7.304688 4.550781 -7.390625 4.03125 -7.390625 Z M 2.09375 -7.390625 "/></g></g></g><g fill="#010882" fill-opacity="1"><g transform="translate(133.414821, 11.724572)"><g><path d="M 1.171875 -8.265625 L 7.140625 -8.265625 L 7.140625 -7.40625 L 2.09375 -7.40625 L 2.09375 -4.59375 L 6.609375 -4.59375 L 6.609375 -3.734375 L 2.09375 -3.734375 L 2.09375 -0.84375 L 7.203125 -0.84375 L 7.203125 0 L 1.171875 0 Z M 1.171875 -8.265625 "/></g></g></g><g fill="#010882" fill-opacity="1"><g transform="translate(141.323076, 11.724572)"><g/></g></g><g fill="#010882" fill-opacity="1"><g transform="translate(144.864105, 11.724572)"><g><path d="M 5 0.140625 C 4.34375 0.140625 3.757812 0.03125 3.25 -0.1875 C 2.738281 -0.40625 2.296875 -0.707031 1.921875 -1.09375 C 1.554688 -1.476562 1.273438 -1.925781 1.078125 -2.4375 C 0.890625 -2.957031 0.796875 -3.515625 0.796875 -4.109375 L 0.796875 -4.125 C 0.796875 -4.695312 0.894531 -5.238281 1.09375 -5.75 C 1.300781 -6.269531 1.582031 -6.722656 1.9375 -7.109375 C 2.300781 -7.503906 2.738281 -7.816406 3.25 -8.046875 C 3.757812 -8.285156 4.320312 -8.40625 4.9375 -8.40625 C 5.289062 -8.40625 5.609375 -8.378906 5.890625 -8.328125 C 6.179688 -8.285156 6.445312 -8.210938 6.6875 -8.109375 C 6.9375 -8.015625 7.171875 -7.898438 7.390625 -7.765625 C 7.609375 -7.628906 7.816406 -7.472656 8.015625 -7.296875 L 7.421875 -6.59375 C 7.265625 -6.738281 7.097656 -6.867188 6.921875 -6.984375 C 6.753906 -7.097656 6.566406 -7.191406 6.359375 -7.265625 C 6.160156 -7.347656 5.941406 -7.410156 5.703125 -7.453125 C 5.460938 -7.503906 5.195312 -7.53125 4.90625 -7.53125 C 4.445312 -7.53125 4.023438 -7.441406 3.640625 -7.265625 C 3.253906 -7.085938 2.921875 -6.84375 2.640625 -6.53125 C 2.367188 -6.226562 2.15625 -5.867188 2 -5.453125 C 1.84375 -5.046875 1.765625 -4.613281 1.765625 -4.15625 L 1.765625 -4.125 C 1.765625 -3.632812 1.84375 -3.179688 2 -2.765625 C 2.15625 -2.347656 2.375 -1.984375 2.65625 -1.671875 C 2.9375 -1.367188 3.273438 -1.128906 3.671875 -0.953125 C 4.078125 -0.785156 4.53125 -0.703125 5.03125 -0.703125 C 5.507812 -0.703125 5.957031 -0.78125 6.375 -0.9375 C 6.789062 -1.101562 7.140625 -1.296875 7.421875 -1.515625 L 7.421875 -3.578125 L 4.90625 -3.578125 L 4.90625 -4.40625 L 8.3125 -4.40625 L 8.3125 -1.125 C 7.925781 -0.78125 7.453125 -0.484375 6.890625 -0.234375 C 6.328125 0.015625 5.695312 0.140625 5 0.140625 Z M 5 0.140625 "/></g></g></g><g fill="#010882" fill-opacity="1"><g transform="translate(154.117938, 11.724572)"><g><path d="M 1.171875 -8.265625 L 7.140625 -8.265625 L 7.140625 -7.40625 L 2.09375 -7.40625 L 2.09375 -4.59375 L 6.609375 -4.59375 L 6.609375 -3.734375 L 2.09375 -3.734375 L 2.09375 -0.84375 L 7.203125 -0.84375 L 7.203125 0 L 1.171875 0 Z M 1.171875 -8.265625 "/></g></g></g><g fill="#010882" fill-opacity="1"><g transform="translate(162.026211, 11.724572)"><g><path d="M 4 0.125 C 3.34375 0.125 2.738281 0.015625 2.1875 -0.203125 C 1.644531 -0.421875 1.125 -0.753906 0.625 -1.203125 L 1.203125 -1.890625 C 1.640625 -1.492188 2.078125 -1.195312 2.515625 -1 C 2.953125 -0.8125 3.457031 -0.71875 4.03125 -0.71875 C 4.59375 -0.71875 5.039062 -0.847656 5.375 -1.109375 C 5.707031 -1.378906 5.875 -1.71875 5.875 -2.125 L 5.875 -2.140625 C 5.875 -2.335938 5.84375 -2.507812 5.78125 -2.65625 C 5.71875 -2.8125 5.609375 -2.953125 5.453125 -3.078125 C 5.296875 -3.203125 5.078125 -3.316406 4.796875 -3.421875 C 4.515625 -3.523438 4.160156 -3.625 3.734375 -3.71875 C 3.253906 -3.820312 2.835938 -3.9375 2.484375 -4.0625 C 2.140625 -4.195312 1.851562 -4.359375 1.625 -4.546875 C 1.394531 -4.742188 1.222656 -4.96875 1.109375 -5.21875 C 1.003906 -5.46875 0.953125 -5.757812 0.953125 -6.09375 L 0.953125 -6.125 C 0.953125 -6.445312 1.019531 -6.742188 1.15625 -7.015625 C 1.289062 -7.296875 1.476562 -7.535156 1.71875 -7.734375 C 1.96875 -7.929688 2.253906 -8.085938 2.578125 -8.203125 C 2.910156 -8.316406 3.273438 -8.375 3.671875 -8.375 C 4.273438 -8.375 4.800781 -8.289062 5.25 -8.125 C 5.707031 -7.957031 6.148438 -7.703125 6.578125 -7.359375 L 6.03125 -6.640625 C 5.644531 -6.953125 5.253906 -7.175781 4.859375 -7.3125 C 4.472656 -7.457031 4.066406 -7.53125 3.640625 -7.53125 C 3.097656 -7.53125 2.671875 -7.398438 2.359375 -7.140625 C 2.046875 -6.890625 1.890625 -6.578125 1.890625 -6.203125 L 1.890625 -6.1875 C 1.890625 -5.988281 1.921875 -5.8125 1.984375 -5.65625 C 2.046875 -5.5 2.160156 -5.351562 2.328125 -5.21875 C 2.492188 -5.09375 2.71875 -4.976562 3 -4.875 C 3.289062 -4.769531 3.664062 -4.671875 4.125 -4.578125 C 5.050781 -4.367188 5.726562 -4.082031 6.15625 -3.71875 C 6.59375 -3.363281 6.8125 -2.867188 6.8125 -2.234375 L 6.8125 -2.21875 C 6.8125 -1.863281 6.738281 -1.539062 6.59375 -1.25 C 6.457031 -0.96875 6.265625 -0.722656 6.015625 -0.515625 C 5.773438 -0.316406 5.476562 -0.160156 5.125 -0.046875 C 4.78125 0.0664062 4.40625 0.125 4 0.125 Z M 4 0.125 "/></g></g></g><g fill="#010882" fill-opacity="1"><g transform="translate(169.580367, 11.724572)"><g><path d="M 3.3125 -7.390625 L 0.53125 -7.390625 L 0.53125 -8.265625 L 7.03125 -8.265625 L 7.03125 -7.390625 L 4.25 -7.390625 L 4.25 0 L 3.3125 0 Z M 3.3125 -7.390625 "/></g></g></g><g fill="#010882" fill-opacity="1"><g transform="translate(177.146334, 11.724572)"><g><path d="M 1.25 -8.265625 L 2.1875 -8.265625 L 2.1875 0 L 1.25 0 Z M 1.25 -8.265625 "/></g></g></g><g fill="#010882" fill-opacity="1"><g transform="translate(180.581125, 11.724572)"><g><path d="M 5.8125 -10.640625 L 6.75 -10.21875 L 5.390625 -9.109375 L 4.625 -9.109375 Z M 5 0.140625 C 4.375 0.140625 3.800781 0.0234375 3.28125 -0.203125 C 2.769531 -0.429688 2.328125 -0.738281 1.953125 -1.125 C 1.585938 -1.507812 1.300781 -1.957031 1.09375 -2.46875 C 0.894531 -2.988281 0.796875 -3.535156 0.796875 -4.109375 L 0.796875 -4.125 C 0.796875 -4.695312 0.898438 -5.238281 1.109375 -5.75 C 1.316406 -6.269531 1.601562 -6.722656 1.96875 -7.109375 C 2.34375 -7.503906 2.785156 -7.816406 3.296875 -8.046875 C 3.816406 -8.285156 4.394531 -8.40625 5.03125 -8.40625 C 5.65625 -8.40625 6.222656 -8.289062 6.734375 -8.0625 C 7.253906 -7.832031 7.695312 -7.519531 8.0625 -7.125 C 8.4375 -6.738281 8.722656 -6.285156 8.921875 -5.765625 C 9.117188 -5.253906 9.21875 -4.71875 9.21875 -4.15625 L 9.21875 -4.125 C 9.21875 -3.5625 9.113281 -3.019531 8.90625 -2.5 C 8.707031 -1.976562 8.421875 -1.519531 8.046875 -1.125 C 7.679688 -0.738281 7.238281 -0.429688 6.71875 -0.203125 C 6.207031 0.0234375 5.632812 0.140625 5 0.140625 Z M 5.03125 -0.71875 C 5.5 -0.71875 5.929688 -0.804688 6.328125 -0.984375 C 6.722656 -1.160156 7.0625 -1.398438 7.34375 -1.703125 C 7.632812 -2.015625 7.859375 -2.375 8.015625 -2.78125 C 8.179688 -3.1875 8.265625 -3.628906 8.265625 -4.109375 L 8.265625 -4.125 C 8.265625 -4.601562 8.179688 -5.046875 8.015625 -5.453125 C 7.859375 -5.867188 7.632812 -6.226562 7.34375 -6.53125 C 7.050781 -6.84375 6.703125 -7.085938 6.296875 -7.265625 C 5.898438 -7.441406 5.46875 -7.53125 5 -7.53125 C 4.53125 -7.53125 4.097656 -7.441406 3.703125 -7.265625 C 3.304688 -7.085938 2.960938 -6.847656 2.671875 -6.546875 C 2.390625 -6.242188 2.164062 -5.882812 2 -5.46875 C 1.84375 -5.0625 1.765625 -4.625 1.765625 -4.15625 L 1.765625 -4.125 C 1.765625 -3.65625 1.84375 -3.210938 2 -2.796875 C 2.164062 -2.390625 2.394531 -2.03125 2.6875 -1.71875 C 2.976562 -1.414062 3.320312 -1.171875 3.71875 -0.984375 C 4.113281 -0.804688 4.550781 -0.71875 5.03125 -0.71875 Z M 5.03125 -0.71875 "/></g></g></g><g fill="#010882" fill-opacity="1"><g transform="translate(190.613994, 11.724572)"><g><path d="M 1.171875 -8.265625 L 2.046875 -8.265625 L 7.25 -1.640625 L 7.25 -8.265625 L 8.15625 -8.265625 L 8.15625 0 L 7.40625 0 L 2.078125 -6.765625 L 2.078125 0 L 1.171875 0 Z M 1.171875 -8.265625 "/></g></g></g><g fill="#010882" fill-opacity="1"><g transform="translate(199.938664, 11.724572)"><g/></g></g><g fill="#010882" fill-opacity="1"><g transform="translate(203.479693, 11.724572)"><g><path d="M 1.171875 -8.265625 L 4.03125 -8.265625 C 4.675781 -8.265625 5.269531 -8.15625 5.8125 -7.9375 C 6.351562 -7.726562 6.816406 -7.441406 7.203125 -7.078125 C 7.585938 -6.710938 7.882812 -6.28125 8.09375 -5.78125 C 8.3125 -5.28125 8.421875 -4.738281 8.421875 -4.15625 L 8.421875 -4.125 C 8.421875 -3.539062 8.3125 -3 8.09375 -2.5 C 7.882812 -2 7.585938 -1.5625 7.203125 -1.1875 C 6.816406 -0.820312 6.351562 -0.53125 5.8125 -0.3125 C 5.269531 -0.101562 4.675781 0 4.03125 0 L 1.171875 0 Z M 2.09375 -7.390625 L 2.09375 -0.859375 L 4.03125 -0.859375 C 4.550781 -0.859375 5.023438 -0.941406 5.453125 -1.109375 C 5.878906 -1.273438 6.238281 -1.503906 6.53125 -1.796875 C 6.820312 -2.085938 7.046875 -2.429688 7.203125 -2.828125 C 7.367188 -3.222656 7.453125 -3.648438 7.453125 -4.109375 L 7.453125 -4.125 C 7.453125 -4.582031 7.367188 -5.007812 7.203125 -5.40625 C 7.046875 -5.800781 6.820312 -6.144531 6.53125 -6.4375 C 6.238281 -6.738281 5.878906 -6.972656 5.453125 -7.140625 C 5.023438 -7.304688 4.550781 -7.390625 4.03125 -7.390625 Z M 2.09375 -7.390625 "/></g></g></g><g fill="#010882" fill-opacity="1"><g transform="translate(212.709936, 11.724572)"><g><path d="M 1.171875 -8.265625 L 7.140625 -8.265625 L 7.140625 -7.40625 L 2.09375 -7.40625 L 2.09375 -4.59375 L 6.609375 -4.59375 L 6.609375 -3.734375 L 2.09375 -3.734375 L 2.09375 -0.84375 L 7.203125 -0.84375 L 7.203125 0 L 1.171875 0 Z M 1.171875 -8.265625 "/></g></g></g><g fill="#010882" fill-opacity="1"><g transform="translate(220.618192, 11.724572)"><g/></g></g><g fill="#010882" fill-opacity="1"><g transform="translate(224.159203, 11.724572)"><g><path d="M 1.171875 -8.265625 L 4.265625 -8.265625 C 4.722656 -8.265625 5.140625 -8.203125 5.515625 -8.078125 C 5.898438 -7.953125 6.226562 -7.773438 6.5 -7.546875 C 6.769531 -7.328125 6.976562 -7.054688 7.125 -6.734375 C 7.269531 -6.410156 7.34375 -6.046875 7.34375 -5.640625 L 7.34375 -5.609375 C 7.34375 -5.160156 7.253906 -4.769531 7.078125 -4.4375 C 6.910156 -4.101562 6.679688 -3.820312 6.390625 -3.59375 C 6.097656 -3.363281 5.753906 -3.191406 5.359375 -3.078125 C 4.960938 -2.960938 4.546875 -2.90625 4.109375 -2.90625 L 2.09375 -2.90625 L 2.09375 0 L 1.171875 0 Z M 4.140625 -3.765625 C 4.472656 -3.765625 4.78125 -3.804688 5.0625 -3.890625 C 5.34375 -3.972656 5.582031 -4.09375 5.78125 -4.25 C 5.988281 -4.414062 6.144531 -4.609375 6.25 -4.828125 C 6.351562 -5.054688 6.40625 -5.304688 6.40625 -5.578125 L 6.40625 -5.609375 C 6.40625 -6.191406 6.203125 -6.632812 5.796875 -6.9375 C 5.390625 -7.238281 4.851562 -7.390625 4.1875 -7.390625 L 2.09375 -7.390625 L 2.09375 -3.765625 Z M 4.140625 -3.765625 "/></g></g></g><g fill="#010882" fill-opacity="1"><g transform="translate(232.043869, 11.724572)"><g><path d="M 4.21875 -8.3125 L 5.09375 -8.3125 L 8.859375 0 L 7.859375 0 L 6.890625 -2.1875 L 2.390625 -2.1875 L 1.421875 0 L 0.453125 0 Z M 6.53125 -3.015625 L 4.640625 -7.234375 L 2.765625 -3.015625 Z M 6.53125 -3.015625 "/></g></g></g><g fill="#010882" fill-opacity="1"><g transform="translate(241.36854, 11.724572)"><g><path d="M 4 0.125 C 3.34375 0.125 2.738281 0.015625 2.1875 -0.203125 C 1.644531 -0.421875 1.125 -0.753906 0.625 -1.203125 L 1.203125 -1.890625 C 1.640625 -1.492188 2.078125 -1.195312 2.515625 -1 C 2.953125 -0.8125 3.457031 -0.71875 4.03125 -0.71875 C 4.59375 -0.71875 5.039062 -0.847656 5.375 -1.109375 C 5.707031 -1.378906 5.875 -1.71875 5.875 -2.125 L 5.875 -2.140625 C 5.875 -2.335938 5.84375 -2.507812 5.78125 -2.65625 C 5.71875 -2.8125 5.609375 -2.953125 5.453125 -3.078125 C 5.296875 -3.203125 5.078125 -3.316406 4.796875 -3.421875 C 4.515625 -3.523438 4.160156 -3.625 3.734375 -3.71875 C 3.253906 -3.820312 2.835938 -3.9375 2.484375 -4.0625 C 2.140625 -4.195312 1.851562 -4.359375 1.625 -4.546875 C 1.394531 -4.742188 1.222656 -4.96875 1.109375 -5.21875 C 1.003906 -5.46875 0.953125 -5.757812 0.953125 -6.09375 L 0.953125 -6.125 C 0.953125 -6.445312 1.019531 -6.742188 1.15625 -7.015625 C 1.289062 -7.296875 1.476562 -7.535156 1.71875 -7.734375 C 1.96875 -7.929688 2.253906 -8.085938 2.578125 -8.203125 C 2.910156 -8.316406 3.273438 -8.375 3.671875 -8.375 C 4.273438 -8.375 4.800781 -8.289062 5.25 -8.125 C 5.707031 -7.957031 6.148438 -7.703125 6.578125 -7.359375 L 6.03125 -6.640625 C 5.644531 -6.953125 5.253906 -7.175781 4.859375 -7.3125 C 4.472656 -7.457031 4.066406 -7.53125 3.640625 -7.53125 C 3.097656 -7.53125 2.671875 -7.398438 2.359375 -7.140625 C 2.046875 -6.890625 1.890625 -6.578125 1.890625 -6.203125 L 1.890625 -6.1875 C 1.890625 -5.988281 1.921875 -5.8125 1.984375 -5.65625 C 2.046875 -5.5 2.160156 -5.351562 2.328125 -5.21875 C 2.492188 -5.09375 2.71875 -4.976562 3 -4.875 C 3.289062 -4.769531 3.664062 -4.671875 4.125 -4.578125 C 5.050781 -4.367188 5.726562 -4.082031 6.15625 -3.71875 C 6.59375 -3.363281 6.8125 -2.867188 6.8125 -2.234375 L 6.8125 -2.21875 C 6.8125 -1.863281 6.738281 -1.539062 6.59375 -1.25 C 6.457031 -0.96875 6.265625 -0.722656 6.015625 -0.515625 C 5.773438 -0.316406 5.476562 -0.160156 5.125 -0.046875 C 4.78125 0.0664062 4.40625 0.125 4 0.125 Z M 4 0.125 "/></g></g></g><g fill="#010882" fill-opacity="1"><g transform="translate(248.922713, 11.724572)"><g><path d="M 4.21875 -8.3125 L 5.09375 -8.3125 L 8.859375 0 L 7.859375 0 L 6.890625 -2.1875 L 2.390625 -2.1875 L 1.421875 0 L 0.453125 0 Z M 6.53125 -3.015625 L 4.640625 -7.234375 L 2.765625 -3.015625 Z M 6.53125 -3.015625 "/></g></g></g><g fill="#010882" fill-opacity="1"><g transform="translate(258.247383, 11.724572)"><g><path d="M 1.171875 -8.265625 L 2.046875 -8.265625 L 7.25 -1.640625 L 7.25 -8.265625 L 8.15625 -8.265625 L 8.15625 0 L 7.40625 0 L 2.078125 -6.765625 L 2.078125 0 L 1.171875 0 Z M 1.171875 -8.265625 "/></g></g></g><g fill="#010882" fill-opacity="1"><g transform="translate(267.572053, 11.724572)"><g><path d="M 3.3125 -7.390625 L 0.53125 -7.390625 L 0.53125 -8.265625 L 7.03125 -8.265625 L 7.03125 -7.390625 L 4.25 -7.390625 L 4.25 0 L 3.3125 0 Z M 3.3125 -7.390625 "/></g></g></g><g fill="#010882" fill-opacity="1"><g transform="translate(275.138021, 11.724572)"><g><path d="M 1.25 -8.265625 L 2.1875 -8.265625 L 2.1875 0 L 1.25 0 Z M 2.53125 -10.515625 L 3.46875 -10.09375 L 2.109375 -8.984375 L 1.34375 -8.984375 Z M 2.53125 -10.515625 "/></g></g></g><g fill="#010882" fill-opacity="1"><g transform="translate(278.572794, 11.724572)"><g><path d="M 4.21875 -8.3125 L 5.09375 -8.3125 L 8.859375 0 L 7.859375 0 L 6.890625 -2.1875 L 2.390625 -2.1875 L 1.421875 0 L 0.453125 0 Z M 6.53125 -3.015625 L 4.640625 -7.234375 L 2.765625 -3.015625 Z M 6.53125 -3.015625 "/></g></g></g><g fill="#010882" fill-opacity="1"><g transform="translate(287.897481, 11.724572)"><g><path d="M 4 0.125 C 3.34375 0.125 2.738281 0.015625 2.1875 -0.203125 C 1.644531 -0.421875 1.125 -0.753906 0.625 -1.203125 L 1.203125 -1.890625 C 1.640625 -1.492188 2.078125 -1.195312 2.515625 -1 C 2.953125 -0.8125 3.457031 -0.71875 4.03125 -0.71875 C 4.59375 -0.71875 5.039062 -0.847656 5.375 -1.109375 C 5.707031 -1.378906 5.875 -1.71875 5.875 -2.125 L 5.875 -2.140625 C 5.875 -2.335938 5.84375 -2.507812 5.78125 -2.65625 C 5.71875 -2.8125 5.609375 -2.953125 5.453125 -3.078125 C 5.296875 -3.203125 5.078125 -3.316406 4.796875 -3.421875 C 4.515625 -3.523438 4.160156 -3.625 3.734375 -3.71875 C 3.253906 -3.820312 2.835938 -3.9375 2.484375 -4.0625 C 2.140625 -4.195312 1.851562 -4.359375 1.625 -4.546875 C 1.394531 -4.742188 1.222656 -4.96875 1.109375 -5.21875 C 1.003906 -5.46875 0.953125 -5.757812 0.953125 -6.09375 L 0.953125 -6.125 C 0.953125 -6.445312 1.019531 -6.742188 1.15625 -7.015625 C 1.289062 -7.296875 1.476562 -7.535156 1.71875 -7.734375 C 1.96875 -7.929688 2.253906 -8.085938 2.578125 -8.203125 C 2.910156 -8.316406 3.273438 -8.375 3.671875 -8.375 C 4.273438 -8.375 4.800781 -8.289062 5.25 -8.125 C 5.707031 -7.957031 6.148438 -7.703125 6.578125 -7.359375 L 6.03125 -6.640625 C 5.644531 -6.953125 5.253906 -7.175781 4.859375 -7.3125 C 4.472656 -7.457031 4.066406 -7.53125 3.640625 -7.53125 C 3.097656 -7.53125 2.671875 -7.398438 2.359375 -7.140625 C 2.046875 -6.890625 1.890625 -6.578125 1.890625 -6.203125 L 1.890625 -6.1875 C 1.890625 -5.988281 1.921875 -5.8125 1.984375 -5.65625 C 2.046875 -5.5 2.160156 -5.351562 2.328125 -5.21875 C 2.492188 -5.09375 2.71875 -4.976562 3 -4.875 C 3.289062 -4.769531 3.664062 -4.671875 4.125 -4.578125 C 5.050781 -4.367188 5.726562 -4.082031 6.15625 -3.71875 C 6.59375 -3.363281 6.8125 -2.867188 6.8125 -2.234375 L 6.8125 -2.21875 C 6.8125 -1.863281 6.738281 -1.539062 6.59375 -1.25 C 6.457031 -0.96875 6.265625 -0.722656 6.015625 -0.515625 C 5.773438 -0.316406 5.476562 -0.160156 5.125 -0.046875 C 4.78125 0.0664062 4.40625 0.125 4 0.125 Z M 4 0.125 "/></g></g></g></g></g></svg>