<svg xmlns="http://www.w3.org/2000/svg" viewBox="0 0 512 512"><path fill="#6c757d" d="M256 32C114.6 32 0 146.6 0 288c0 92 49 173.3 122.5 219.7 6.1-23.7 28.1-40.8 53.5-40.8 12.7 0 24.3 4.3 33.4 11.5C227.1 487.6 241.6 490 256 490c141.4 0 256-114.6 256-256S397.4 32 256 32zm0 416c-13.9 0-27.1-2.6-39.6-7.3-8.8-13.4-23.8-21.7-40.4-21.7-25.5 0-47.5 17.5-53.1 41.5C64.6 414.7 32 355.6 32 288c0-123.5 100.5-224 224-224s224 100.5 224 224-100.5 224-224 224zm-64-160h128c17.7 0 32-14.3 32-32V128c0-17.7-14.3-32-32-32H192c-17.7 0-32 14.3-32 32v128c0 17.7 14.3 32 32 32zm32-128h64v64h-64v-64z"/></svg>