<svg xmlns="http://www.w3.org/2000/svg" viewBox="0 0 512 512"><path fill="#6c757d" d="M256 0c141.4 0 256 114.6 256 256s-114.6 256-256 256S0 397.4 0 256 114.6 0 256 0zM256 472c119.3 0 216-96.7 216-216S375.3 40 256 40 40 136.7 40 256s96.7 216 216 216zm0-360c44.2 0 80 35.8 80 80s-35.8 80-80 80-80-35.8-80-80 35.8-80 80-80zm0 200c-68 0-126.9 39-158.5 98.4 8.7 8.3 18.2 15.8 28.5 22.3 26.5-35.9 68.6-59.4 116-60.7 4.2-.1 8.3-.1 12.5 0 47.4 1.3 89.5 24.8 116 60.7 10.3-6.5 19.8-14 28.5-22.3C382.9 351 324 312 256 312z"/></svg>