<svg xmlns="http://www.w3.org/2000/svg" viewBox="0 0 512 512"><path fill="#6c757d" d="M256 0c141.4 0 256 114.6 256 256s-114.6 256-256 256S0 397.4 0 256 114.6 0 256 0zM256 472c119.3 0 216-96.7 216-216S375.3 40 256 40 40 136.7 40 256s96.7 216 216 216zm0-360c44.2 0 80 35.8 80 80s-35.8 80-80 80-80-35.8-80-80 35.8-80 80-80zm-15.5 200.5c-48.6 1.8-91.1 26.1-117.8 63 9.7 7.7 20.2 14.7 31.4 20.8 22.1-34.6 59.8-58.1 101.9-59.8 48.6-1.8 91.1 22.5 117.8-14.4-26.7 36.9-69.2 61.2-117.8 63-42.1 1.7-79.8-21.8-101.9 12.8 11.2-6.1 21.7-13.1 31.4-20.8 26.7-36.9 69.2-61.2 117.8-63 .6 0 1.2 0 1.7 0-48.6 1.8-91.1-22.5-117.8 14.4z"/></svg>